<svg xmlns="http://www.w3.org/2000/svg" xml:space="preserve" viewBox="0 0 135.467 135.467"><path fill="#fcfcfc" d="M11.601 43.538h80.378v13.849H11.601z"/><path fill="gray" d="M53.591 135.36c-26.643-1.012-47.956-4.336-52.59-8.204-.923-.771-1.241-1.764-.815-2.549.999-1.835 5.632-3.527 14.105-5.149 3.253-.622 9.513-1.5 12.744-1.787 1.382-.122 2.589-.288 2.683-.367.093-.08-.034-.256-.281-.392-1.553-.855-5.972-3.754-7.576-4.97-3.08-2.337-6.799-6.052-9.29-9.281-2.499-3.24-5.545-8.643-7.056-12.517-2.173-5.574-3.253-11.286-3.253-17.22 0-6.493 1.303-12.22 3.99-17.53.388-.764.704-1.534.704-1.712 0-.57-1.969-2.275-3.298-2.855-.814-.356-1.305-.694-1.419-.979-.096-.239-.173-1.956-.173-3.816 0-3.024.042-3.444.383-3.976.718-1.12.891-1.16 5.992-1.356 2.572-.098 5.841-.181 7.265-.183l2.588-.005 1.617-1.18c7.04-5.131 72.626-8.6 96.484.042 1.575.57 1.424 1.047 2.836 1.17.806.07 2.92.14 4.694.154 1.775.014 4.217.087 5.426.162 2.05.127 2.237.172 2.773.66.953.868 1.005 1.18.847 5.127l-.146 3.625-1.427.672c-1.598.753-2.65 1.603-2.512 2.026.052.154.448 1.047.882 1.984 1.18 2.547 2.137 5.274 2.758 7.874.92 3.84 1.082 5.339 1.072 9.95-.01 4.673-.29 6.847-1.456 11.272-1.663 6.315-5.292 13.236-9.729 18.553-2.032 2.435-6.537 6.673-9.148 8.605-2.416 1.788-5.8 3.968-7.89 5.085-.765.409-1.394.8-1.397.868-.002.07.59.18 1.316.247 6.51.602 11.304 1.24 16.186 2.158 5.52 1.036 8.648 1.879 10.978 2.955 2.306 1.066 3.008 1.719 3.008 2.8 0 .997-.799 1.81-2.692 2.742-6.689 3.293-21.856 5.661-44.937 7.018-5.663.334-28.016.515-34.246.279zm30.595-80.787c2.218-1.461 3.012-4.318 1.58-5.68-1.069-1.017-2.615-.892-4.119.332-2.001 1.63-2.335 4.77-.605 5.697.787.422 2.216.263 3.144-.349zm-66.202-2.15c.722-.262 2.052-1.466 2.462-2.229.643-1.199.599-2.732-.104-3.525-.953-1.077-2.763-.948-4.218.303-.903.775-1.255 1.354-1.527 2.509-.51 2.162 1.269 3.707 3.388 2.94z"/><path fill="#ec6a5c" d="M61.528 126.035c-7.12-.49-14.487-1.958-20.497-4.085-2.72-.963-7.822-3.173-9.43-4.084-6.425-3.64-10.039-6.17-13.4-9.376C8.625 99.356 3.013 87.174 2.52 74.45c-.259-6.638 1.061-13.087 3.793-18.546l1.092-2.18-.567-.78c-.72-.99-2.16-2.077-3.295-2.489-.485-.176-.925-.455-.98-.622-.053-.166-.121-1.865-.15-3.775-.052-3.275-.032-3.503.354-3.999.756-.971.918-.992 8.486-1.118l7.056-.117 1.316-.998c4.385-3.325 9.199-5.941 14.573-7.413 13.483-3.696 47.366-10.262 71.907 1.404 3.858 1.834 7.844 3.816 11.023 6.457l.734.61 2.493.006c1.372.005 4.429.082 6.794.172l4.3.164.643.667.643.667-.054 3.745c-.044 3.103-.103 3.769-.346 3.89-.161.08-.696.32-1.188.533-1.139.491-2.529 1.615-2.529 2.045 0 .183.299.95.664 1.707 1.76 3.65 3.144 8.132 3.761 12.187.454 2.983.461 9.067.015 11.838-2.32 14.374-10.159 26.154-23.119 34.747-1.412.936-2.494 1.58-6.271 3.738-3.943 2.25-9.23 4.35-15.122 6.008-8.858 2.49-18.763 3.603-27.019 3.036zM84.15 54.912c1.556-.857 2.611-2.546 2.611-4.175 0-1.716-1.035-2.785-2.697-2.786-2.34-.002-4.769 2.775-4.49 5.131.128 1.08.589 1.704 1.578 2.14.976.428 1.821.34 2.999-.31zm-66.088-2.229c2.183-.864 3.82-3.934 2.953-5.535-.716-1.321-1.887-1.773-3.447-1.333-1.199.338-2.773 1.85-3.14 3.015-.873 2.77 1.097 4.858 3.634 3.853z"/><path fill="#eb4c3b" d="M59.768 125.6c-12.736-1.122-23.794-4.882-34.133-11.605-1.182-.77-2.811-1.905-3.618-2.521-2.112-1.616-5.74-5.111-7.546-7.271-2.776-3.32-6.4-9.392-8.177-13.7-3.24-7.854-4.3-17.665-2.739-25.351.757-3.723 1.97-7.259 3.299-9.613.686-1.215.696-1.261.407-1.918-.439-.998-2.237-2.573-3.512-3.075-.601-.237-1.135-.563-1.187-.723-.052-.16-.12-1.855-.149-3.765-.05-3.275-.03-3.503.355-3.999.747-.958.892-.977 8.825-1.131l7.425-.144.932-.78c1.802-1.508 7.007-4.56 9.635-5.652 1.47-.609 5.607-1.795 6.362-2.097 7.277-2.908 29.43-8.475 60.876-1.666 3.05.544 10.152 3.627 12.605 4.927 2.555 1.354 5.895 3.529 7.219 4.7.628.555.697.57 2.836.625 1.206.032 4.392.131 7.08.222l4.886.163.644.667.643.667-.054 3.745c-.044 3.103-.103 3.769-.346 3.89-.161.08-.734.337-1.271.57-.538.233-1.399.823-1.913 1.311l-.934.887.492.923c1.996 3.747 3.689 9.4 4.23 14.136.298 2.607.131 9.274-.286 11.45-1.285 6.681-3.352 12.018-6.76 17.453-4.877 7.779-11.81 14.024-21.462 19.332-8.576 4.717-17.785 7.614-28.527 8.977-4.634.589-11.775.75-16.137.366zm47.706-36.372c1.81-.477 2.391-.764 3.482-1.721 1.23-1.077 1.625-1.9 1.625-3.385 0-1.537-.33-2.287-1.46-3.333-.729-.673-1.108-.868-2.017-1.039-.616-.115-1.478-.384-1.915-.597-.722-.352-.922-.37-2.196-.19-.77.109-1.645.321-1.944.472-2.462 1.244-3.233 1.715-3.779 2.306-2.307 2.498-1.567 5.597 1.68 7.045 1.894.845 4.36 1.012 6.524.442zm-78.807-2.026c1.966-.95 2.824-2.223 2.704-4.01-.102-1.524-.76-2.38-2.848-3.367-2.122-1.004-1.74-.75-4.685-1.466-2.371-.599-3.963-1.675-6.224-4.211-.216-.243-.7-.696-1.075-1.008-2.074-1.722-4.18-4.327-5.513-6.82-.313-.586-.652-1.113-.754-1.174-.59-.346.192 6.736.994 9.025 1.658 5.672 5.48 9.792 10.624 12.563 1.726.896 2.223 1.006 4.235.944 1.27-.038 1.87-.15 2.543-.476zm55.483-32.29c1.556-.857 2.611-2.546 2.611-4.175 0-1.716-1.035-2.785-2.697-2.786-2.34-.002-4.769 2.775-4.49 5.131.128 1.08.589 1.704 1.58 2.14.975.428 1.82.34 2.997-.31zm-66.088-2.229c2.183-.864 3.82-3.934 2.953-5.535-.716-1.321-1.887-1.773-3.447-1.333-1.199.338-2.773 1.85-3.14 3.015-.873 2.77 1.097 4.858 3.634 3.853zm28.972-11.38c1.321-1.02 1.57-1.362 1.578-2.154.005-.548-.128-.84-.58-1.27-.444-.422-.558-.666-.469-1.005.14-.531-.273-.733-2.27-1.112-1.904-.36-6.427.083-11.155 1.093-2 .428-6.621 2.162-9.164 3.44-.776.39.123.504 4.915.62 6.045.146 14.086.699 14.392.99.055.052.494.095.976.095.722 0 1.035-.123 1.777-.696z"/><path fill="#d83428" d="M60.648 125.933c-14.578-1.123-27.681-5.967-38.63-14.28-2.085-1.584-5.75-5.098-7.475-7.17-2.169-2.604-2.417-3.253-.764-1.998 2.213 1.68 4.354 2.99 7.809 4.776 2.765 1.429 6.147 2.987 6.485 2.987.12 0 .55.16.952.356.765.371 6.03 2.131 6.88 2.3.269.054 1.149.28 1.956.502 6.185 1.704 16.297 2.593 23.472 2.065 2.846-.21 3.667-.302 6.846-.779 1.946-.29 5.082-.907 6.063-1.19a158.856 151.03 0 0 1 2.739-.743c8.046-2.119 16.05-5.65 21.666-9.56 3.736-2.603 4.522-3.23 7.123-5.689 3.408-3.222 6.971-8.126 8.31-11.437.797-1.97 2.021-5.595 2.021-5.985 0-.2.076-.503.17-.675.252-.469.449-2.452.243-2.452-.097 0-.737.316-1.419.703-.684.387-2.062 1.068-3.061 1.513-1.61.716-1.93.797-2.778.701-.526-.059-1.234-.244-1.572-.41-1.145-.563-4.759-.039-6.13.89-.769.52-2.506.633-4.894.321-5.21-.681-10.786-2.8-13.861-5.264-1.2-.962-3.805-3.76-4.477-4.808-1.698-2.652-3.766-7.194-4.345-9.546-.407-1.654-.908-4.457-.91-5.092-.002-1.02-.402-1.894-1.037-2.268-.717-.42-2.185-.844-3.46-.998-1.18-.142-4.043.234-4.89.643-1.317.635-1.57 1.19-1.94 4.275-.808 6.734-1.122 7.989-2.844 11.354-.908 1.774-1.671 2.758-3.488 4.499-7.938 7.61-22.228 7.983-26.056 6.809-8.187-2.511-11.529-3.47-16.787-11.174-1.312-1.922-2.685-4.373-3.226-5.758-.498-1.277-1.293-4.934-1.662-7.64-.25-1.832-.322-2.042-.99-2.816-.844-.98-1.577-1.516-2.943-2.155-1.218-.57-1.233-.621-1.264-4.423-.025-3.083.152-3.868.987-4.385.372-.23 1.826-.318 7.807-.478 4.148-.11 7.614-.283 7.953-.396.359-.118 1.421-.161 2.626-.106 1.112.05 4.267.175 7.01.274 6.788.246 13.837.731 15.402 1.06.241.05 1.034.134 1.76.185 2.951.21 6.989.993 11.493 2.23 3.956 1.086 3.859 1.076 5.953.65 2.52-.513 6.029-.515 8.13-.004 2.015.49 2.215.478 4.712-.258a104.4 104.4 0 0 1 2.625-.748l2.358-.577c5.204-1.277 10.542-1.982 17.837-2.357 2.447-.126 4.45-.288 4.45-.36-4.89-6.827-19.192-6.838-22.885-4.138-3.688 2.695-7.949 4.795-8.004 5.343-.01.087.204.323.473.525.908.679.428 1.16-.725.728-.247-.093-1.593-.632-2.992-1.201-5.844-2.373-9.736-3.77-13.985-5.024-1.358-.4-6.193-1.227-7.2-1.23-.14 0-.213-.068-.16-.148.052-.082-.492-.119-1.21-.082-.983.05-1.235.015-1.014-.138.218-.152-.207-.192-1.664-.157-1.62.038-2.048-.012-2.491-.293-.296-.187-.489-.414-.43-.504.059-.09-.045-.108-.23-.04-.246.09-.292.056-.176-.124.106-.162.086-.202-.06-.116-.305.179-1.056-.228-.891-.483.074-.113.045-.153-.063-.09s-.364-.013-.568-.17-.261-.235-.127-.17c.425.205.264-.067-.17-.287-.318-.163-.381-.16-.27.011.112.172.048.174-.275.01-.232-.118-.37-.293-.307-.39.062-.095-.305.024-.17-.07 7.425-5.175 27.655 2.152 39.568 2.32 1.726-.169 4.554-.822 5.022-1.16.121-.087.414-.663.65-1.28 1.37-3.57 6.941-5.856 25.538 3.036 1.886.901 5.25 2.971 6.845 4.212 1.837 1.43 2.103 1.495 6.064 1.508 1.937.006 4.928.084 6.648.176l3.127.164.54.575.54.575v7.398l-1.231.548c-1.262.561-2.543 1.5-2.89 2.115-.15.268-.009.767.61 2.16 2.659 5.98 3.727 10.355 4.03 16.49.347 7.09-1.69 15.496-5.446 22.466-3.512 6.517-8.299 12.082-14.342 16.672-11.325 8.603-25.441 13.799-40.975 15.083-2.046.169-9.736.213-11.639.066zM84.28 55.392c1.55-.935 2.634-2.677 2.661-4.28.052-2.98-3.4-3.977-5.817-1.68-1.568 1.492-2.195 4.025-1.31 5.286.951 1.354 2.86 1.642 4.466.675zm-66.491-2.065c1.011-.267 2.607-1.707 3.179-2.866.781-1.585.524-3.075-.7-4.054-.5-.4-.828-.502-1.61-.502-4.138 0-6.46 6.105-2.795 7.345.952.324.988.324 1.926.077z"/><path fill="#799541" d="M94.252 35.408c-3.938-1.01-9.664-.541-13.3 1.09-8.414 6.504-9.505 6.04-18.974 2.492-4.344-1.627-7.575-2.513-10.76-2.949-1.505-.206-2.834-.407-2.955-.447-.12-.04-1.44-.13-2.934-.2-2.568-.122-2.768-.16-3.693-.696-1.844-1.07-3.133-1.901-5.282-3.402-6.649-4.645-9.956-6.645-12.459-7.535-.632-.225-1.118-.502-1.08-.616.148-.434 2.721-.889 5.03-.89 3.453 0 6.394.717 10.543 2.57 2.73 1.219 2.897 1.238 2.376.268-.769-1.434-1.617-3.67-1.978-5.224-.582-2.491-.45-7.574.213-8.25.086-.087.635.792 1.221 1.953 1.149 2.283 2.6 4.316 4.58 6.421 1.816 1.93 5.728 4.886 5.31 4.014-.037-.077-.529-1.021-1.094-2.1-1.215-2.319-1.602-3.864-1.607-6.415-.003-2.184.32-3.566 1.265-5.385.719-1.386 2.112-3.07 2.543-3.07.173 0 .298.382.381 1.163.433 4.086 1.575 6.846 4.135 9.996 1.535 1.888 5.273 5.021 5.991 5.021.31 0 .352-.181.352-1.541 0-3.122.753-7.446 1.854-10.64 1.273-3.697 2.998-6.416 5.42-8.548 1.365-1.202 3.823-2.603 4.35-2.48.174.04.022.623-.522 1.995-1.445 3.647-1.958 6.3-1.94 10.056.011 2.575.388 5.314 1.1 8 .642 2.422 1.13 3.609 1.513 3.679.417.076 4.65-3.904 5.993-5.635 1.94-2.502 3.372-5.658 3.651-8.043.074-.64.207-1.162.294-1.162.286 0 1.622 1.928 2.295 3.313.714 1.468 1.224 3.594 1.224 5.095 0 .515-.184 1.685-.41 2.6-.226.914-.356 1.713-.29 1.777.066.062.933-.272 1.926-.742 2.2-1.041 3.829-1.574 5.51-1.8.699-.094 1.36-.224 1.47-.289.11-.063.43-.823.714-1.688s.582-1.572.662-1.572c.243 0 .76 2.029.974 3.813.443 3.718.053 7.61-.993 9.889-.429.934-1.042 7.211-2.619 6.114zm-8.532-5.454c2.873-1.652 5.54-4.053 7.401-6.662 1.305-1.829 2.144-3.608 1.702-3.608-.063 0-.656.302-1.32.672-3.342 1.862-6.824 5.317-8.902 8.835-1.01 1.71-.79 1.86 1.119.763z"/><path fill="#60752d" d="M70.658 40.495c-1.055-.208-4.245-1.095-5.326-1.48-1.627-.58-5.58-1.69-7.877-2.213-4.138-.941-11.031-1.83-13.536-1.746-.913.03-1.21-.064-2.504-.8-2.112-1.202-3.947-2.379-4.41-2.825-.22-.214-.792-.647-1.271-.965a230.92 219.543 0 0 1-3.218-2.218c-2.661-1.86-5.053-3.286-7.22-4.306-.817-.384-1.484-.754-1.484-.821 0-.203 1.57-.516 3.232-.644 3.026-.234 6.994.71 11.392 2.71 1.347.612 2.554 1.114 2.682 1.114.128 0 .575.48.992 1.069 1.033 1.453 3.839 4.185 5.271 5.132 2.371 1.566 4.398 2.401 7.238 2.981.86.176 1.956.443 2.434.595.819.258.893.253 1.26-.097.476-.451.668-1.728.69-4.592l.017-2.071-1.614-.798c-1.623-.802-5.097-2.732-6.025-3.349-.688-.456-3.036-4.843-3.441-6.428-.491-1.92-.455-5.027.078-6.668.58-1.787 2.397-4.556 2.99-4.556.071 0 .182.69.246 1.533.37 4.918 4.48 10.872 9.743 14.119l.903.556.128 1.457c.144 1.645.742 4.929 1.202 6.603.68 2.477 3.26 7 3.736 6.548.062-.06.221-.803.354-1.654.134-.85.44-1.912.681-2.359l.44-.812.953.12c.524.066 1.32.243 1.769.393.448.15 1.029.275 1.288.275.26 0 1.116.126 1.9.28 1.128.22 1.811.243 3.24.102 1.726-.17 4.554-.823 5.022-1.16.121-.088.414-.664.65-1.281.525-1.368.884-1.548 2.976-1.496a11.5 11.5 0 0 0 8.135-3.071c.971-.906 1.424-1.538 2.198-3.069l.976-1.929.002.86c.006 1.837-.965 5.818-1.616 6.624-.103.128-.145.386-.093.575.116.42-.627 1.4-2.246 2.966-1.104 1.069-1.258 1.158-1.803 1.037-1.138-.253-5.421-.08-7.246.293-3.316.676-7.389 2.278-10.803 4.25-2.027 1.17-2.46 1.34-3.085 1.216zm5.228-10.894c-.201-.434-.795-1.82-1.32-3.078l-.953-2.29.967-.777c2.034-1.633 3.138-2.704 4.69-4.555 2.391-2.849 4.395-6.74 4.395-8.534 0-.784.16-.776.845.04 1.775 2.113 2.72 6.14 2.075 8.828-.597 2.479-.732 2.727-2.002 3.683-1.42 1.069-5.97 5.317-7.057 6.591-.414.485-.87.883-1.014.883-.143 0-.425-.356-.626-.79z"/><path fill="#363435" d="M30.82 78.931c-3.905-.579-6.884-1.577-10.45-3.501-1.782-.962-2.542-1.524-4.338-3.211-2.465-2.315-3.774-4.063-5.278-7.048-1.202-2.386-1.641-3.811-2.328-7.55-.73-3.988-.9-4.435-2.136-5.629a8.719 8.719 0 0 0-2.348-1.602l-1.29-.58v-7.247l.544-.578.543-.579 4.396-.175c6.34-.253 18.266-.253 24.053 0 9.989.435 17.634 1.43 24.012 3.121 5.604 1.486 4.99 1.4 7.12.988 2.611-.505 5.896-.494 8.237.028 2.084.466 2.586.422 5.522-.485 4.203-1.298 10.093-2.455 15.159-2.978 6.069-.627 18.78-1.125 24.157-.946 2.044.068 6.19.203 9.215.299 3.023.096 5.64.227 5.815.291.174.063.496.392.716.73.37.57.396.865.346 4.115l-.053 3.5-1.167.532c-2.836 1.293-3.85 2.83-4.439 6.73-.455 3.016-.948 4.854-1.964 7.325-2.027 4.93-6.676 9.59-11.991 12.022-1.984.907-5.245 1.93-6.552 2.057-.591.056-1.78.233-2.64.391-3.505.645-9.232-.084-13.94-1.776-1.484-.534-4.632-2.16-6.1-3.152-5.651-3.821-9.076-9.743-10.08-17.428-.395-3.036-.714-3.506-2.838-4.183-1.098-.35-1.605-.397-3.717-.34-2.278.062-2.52.104-3.522.622-1.373.71-1.722 1.37-1.978 3.747-.636 5.915-2.783 10.513-6.822 14.616-2.168 2.202-4.516 3.851-7.337 5.152-2.785 1.286-4.157 1.745-7.041 2.355-2.688.57-7.004.736-9.487.368zm53.159-23.649c1.892-.897 3.385-3.416 3.046-5.14-.306-1.559-1.892-2.733-3.341-2.475-2.325.415-4.171 2.485-4.312 4.834-.087 1.455.35 2.267 1.528 2.842 1.112.542 1.837.527 3.079-.06zm-65.557-2.508c1.706-.785 2.997-2.681 3.004-4.414.005-1.111-.334-1.87-1.087-2.434-2.308-1.726-6.345.979-6.372 4.267-.019 2.32 2.213 3.613 4.455 2.581z"/><path fill="none" stroke="#3e3e3e" stroke-linecap="round" stroke-linejoin="round" stroke-width="3.011" d="M409.389 186.594c11.545-10.58 29.314-11.457 41.38-.708" transform="matrix(.73928 0 0 .70286 -249.512 -37.392)"/></svg>